<svg width="64" height="64" viewBox="0 0 64 64" fill="none" xmlns="http://www.w3.org/2000/svg">
<path d="M26.6211 34.8261C28.6134 29.2518 33.6641 25.2323 39.5821 24.5585C37.6485 19.0565 32.4102 15.121 26.2501 15.121C18.4454 15.121 12.1115 21.4452 12.1115 29.2518C12.1115 32.9745 13.5529 36.3592 15.9084 38.8866C18.6174 36.3671 22.2501 34.8182 26.2424 34.8182C26.3672 34.8183 26.4882 34.8261 26.6211 34.8261Z" fill="#FFC228"/>
<path d="M28.3067 3.00586H24.1895V10.9316H28.3067V3.00586Z" fill="#FFC228"/>
<path d="M14.748 14.8417L9.1445 9.23822L6.23238 12.1485L11.836 17.7538L14.748 14.8417Z" fill="#FFC228"/>
<path d="M7.92575 27.1954H0V31.3126H7.92575V27.1954Z" fill="#FFC228"/>
<path d="M6.23238 46.3555L9.14063 49.2715L11.3379 47.0722C11.6836 45.3086 12.334 43.6542 13.2403 42.164L11.832 40.7557L6.23238 46.3555Z" fill="#FFC228"/>
<path d="M46.2656 12.1485L43.3516 9.23639L37.75 14.8418L40.6601 17.7539L46.2656 12.1485Z" fill="#FFC228"/>
<path d="M52.8223 38.043C51.668 32.6895 46.9121 28.6777 41.2149 28.6777C35.457 28.6777 30.6601 32.7715 29.5704 38.209C28.9259 38.0976 28.2656 38.0274 27.5899 38.0274C21.2461 38.0274 16.1055 43.168 16.1055 49.5097C16.1055 55.8535 21.2461 60.9941 27.5899 60.9941C33.0098 60.9941 47.1836 60.9941 52.5156 60.9941C58.8594 60.9941 64 55.8535 64 49.5097C64 43.2695 59.0235 38.2051 52.8223 38.043Z" fill="#E1DEDE"/>
</svg>
