<svg width="64" height="64" viewBox="0 0 64 64" fill="none" xmlns="http://www.w3.org/2000/svg">
<path d="M55.6211 14.832C53.3691 12.5371 50.3633 11.2265 47.1583 11.1406L46.0743 11.1114L45.8458 10.0527C45.2403 7.25 43.6778 4.69925 41.4395 2.87112C39.1406 0.996125 36.3555 0.002 33.3809 0C30.375 0.002 27.5645 1.01363 25.252 2.92775C23 4.793 21.4493 7.38675 20.8789 10.2324L20.6133 11.5487L19.2851 11.3164C18.5234 11.1875 17.832 11.123 17.1699 11.123C13.8945 11.125 10.8105 12.4004 8.48238 14.7226C6.164 17.0449 4.88863 20.1289 4.88663 23.4062C4.88863 26.6836 6.164 29.7656 8.48625 32.0938C10.8085 34.4121 13.8925 35.6914 17.1718 35.6914H22.6346L33.9238 22.7734L40.7109 15.5331C41.1328 15.0839 41.8164 15.0039 42.3281 15.3456C42.8418 15.6874 43.0333 16.3476 42.7813 16.9101L34.3868 35.6914H46.8321C50.1075 35.6914 53.1915 34.4121 55.5176 32.0918C57.834 29.7656 59.1114 26.6835 59.1134 23.4062C59.1114 20.1914 57.873 17.1485 55.6211 14.832Z" fill="#E1DEDE"/>
<path d="M35.9336 24.5312L16.709 46.5312L22.0195 46.8555L14.6875 64L41.3809 37.4726H31.2598L35.9336 24.5312Z" fill="#FFC228"/>
</svg>
