<svg width="64" height="64" viewBox="0 0 64 64" fill="none" xmlns="http://www.w3.org/2000/svg">
<g clip-path="url(#clip0_6_63)">
<path d="M58.0781 16.1255C55.543 13.6118 52.1914 12.2016 48.6327 12.1547L47.4296 12.1391L47.162 10.9692C46.4491 7.8676 44.6756 5.06297 42.1679 3.06497C39.5879 1.0201 36.4824 -0.0405262 33.1836 0.000473816C29.8476 0.0493488 26.7461 1.21335 24.207 3.3696C21.7382 5.4731 20.0546 8.37547 19.4647 11.5395L19.1912 13.0023L17.7146 12.766C16.867 12.6331 16.0994 12.5726 15.363 12.5823C11.7301 12.6331 8.32787 14.096 5.78099 16.7053C3.24387 19.3167 1.87474 22.7561 1.91962 26.3928C1.97037 30.0276 3.43324 33.43 6.04262 35.9788C8.65587 38.514 12.0954 39.8871 15.7301 39.8382L48.6364 39.3968C52.2692 39.3461 55.6715 37.8832 58.2184 35.2738C60.7535 32.6606 62.1246 29.2191 62.0797 25.5843C62.0292 22.0161 60.6094 18.6607 58.0781 16.1255Z" fill="#E1DEDE"/>
<path d="M18.6992 44.1354C18.6992 44.1354 16.0625 46.5983 15.4414 47.358C15.205 47.6471 15.0272 47.9927 14.9296 48.3775C14.578 49.7779 15.4257 51.2017 16.8281 51.5552C18.2305 51.9087 19.6524 51.0573 20.0059 49.6567C20.1035 49.27 20.1094 48.8852 20.0391 48.5181C19.8496 47.5552 18.6992 44.1354 18.6992 44.1354Z" fill="#73CDFF"/>
<path d="M15.582 56.5006C15.582 56.5006 12.9472 58.9655 12.3261 59.7272C12.0897 60.0164 11.9101 60.3581 11.8144 60.7429C11.4609 62.1452 12.3105 63.5671 13.7109 63.9206C15.1132 64.2741 16.5351 63.4245 16.8886 62.0221C16.9882 61.6374 16.9921 61.2486 16.9219 60.8854C16.7344 59.9186 15.582 56.5006 15.582 56.5006Z" fill="#73CDFF"/>
<path d="M34.3516 43.9244C34.3516 43.9244 31.7188 46.3893 31.0958 47.149C30.8594 47.4381 30.6816 47.7819 30.586 48.1666C30.2305 49.569 31.0821 50.9909 32.4805 51.3444C33.8848 51.696 35.3066 50.8483 35.6603 49.4459C35.7579 49.0591 35.7638 48.6744 35.6915 48.3073C35.5039 47.3443 34.3516 43.9244 34.3516 43.9244Z" fill="#73CDFF"/>
<path d="M31.2344 56.2896C31.2344 56.2896 28.6015 58.7545 27.9805 59.5142C27.7423 59.8052 27.5664 60.1471 27.4688 60.5319C27.1153 61.9342 27.9649 63.3561 29.3673 63.7096C30.7676 64.0631 32.1915 63.2135 32.543 61.8131C32.6406 61.4264 32.6465 61.0396 32.5762 60.6745C32.3867 59.7096 31.2344 56.2896 31.2344 56.2896Z" fill="#73CDFF"/>
<path d="M50.0079 43.7154C50.0079 43.7154 47.3711 46.1783 46.75 46.938C46.5136 47.2271 46.334 47.5709 46.2383 47.9556C45.8828 49.358 46.7344 50.7818 48.1368 51.1354C49.5371 51.487 50.961 50.6373 51.3145 49.2349C51.4103 48.8501 51.4161 48.4634 51.3458 48.0963C51.1601 47.1334 50.0079 43.7154 50.0079 43.7154Z" fill="#73CDFF"/>
<path d="M46.8906 56.0807C46.8906 56.0807 44.2577 58.5436 43.6327 59.3054C43.3964 59.5945 43.2186 59.9383 43.121 60.323C42.7694 61.7234 43.6171 63.1472 45.0195 63.4987C46.4219 63.8542 47.8437 63.0046 48.1972 61.6022C48.2949 61.2175 48.3007 60.8287 48.2305 60.4655C48.041 59.4986 46.8906 56.0807 46.8906 56.0807Z" fill="#73CDFF"/>
</g>
<defs>
<clipPath id="clip0_6_63">
<rect width="64" height="64" fill="white"/>
</clipPath>
</defs>
</svg>
