<svg width="64" height="64" viewBox="0 0 64 64" fill="none" xmlns="http://www.w3.org/2000/svg">
<g clip-path="url(#clip0_6_87)">
<path d="M58.2861 16.5562C55.7874 13.9942 52.4516 12.5293 48.8972 12.4352L47.6947 12.4038L47.4414 11.2216C46.7694 8.09246 45.0345 5.24598 42.5523 3.20303C40.0022 1.1102 36.9123 0.00189151 33.6113 0C30.2772 0.00189151 27.1598 1.1323 24.5931 3.2677C22.0963 5.34942 20.3742 8.24579 19.7426 11.4212L19.4489 12.8916L17.9727 12.6329C17.13 12.487 16.3644 12.4149 15.6264 12.4149C11.993 12.4168 8.57271 13.8428 5.98948 16.4325C3.41916 19.026 2.00188 22.4691 2 26.1283C2.00188 29.7839 3.41916 33.2252 5.995 35.8242C8.57271 38.4103 11.9911 39.8381 15.6281 39.84H48.5336C52.1689 39.8381 55.5873 38.4103 58.1705 35.8205C60.7408 33.2253 62.1582 29.7839 62.16 26.1266C62.1581 22.5374 60.783 19.1404 58.2861 16.5562Z" fill="#E1DEDE"/>
<path d="M15.2869 44V51.5M14.4536 44.4167L15.2869 45.25L16.1203 44.4167M14.4536 51.0833L15.2869 50.25L16.1203 51.0833M12.0504 45.875L18.5455 49.625M12 46.712L13.0245 46.4375L12.75 45.413M17.8457 50.087L17.5712 49.0625L18.5957 48.788M18.5455 45.875L12.0503 49.625M17.8458 45.413L17.5713 46.4375L18.5958 46.712M12.0001 48.788L13.0247 49.0625L12.7501 50.087" stroke="#73CDFF" stroke-linecap="round" stroke-linejoin="round"/>
<path d="M15.2869 57V64.5M14.4536 57.4167L15.2869 58.25L16.1203 57.4167M14.4536 64.0833L15.2869 63.25L16.1203 64.0833M12.0504 58.875L18.5455 62.625M12 59.712L13.0245 59.4375L12.75 58.413M17.8457 63.087L17.5712 62.0625L18.5957 61.788M18.5455 58.875L12.0503 62.625M17.8458 58.413L17.5713 59.4375L18.5958 59.712M12.0001 61.788L13.0247 62.0625L12.7501 63.087" stroke="#73CDFF" stroke-linecap="round" stroke-linejoin="round"/>
<path d="M32.2869 44V51.5M31.4536 44.4167L32.2869 45.25L33.1203 44.4167M31.4536 51.0833L32.2869 50.25L33.1203 51.0833M29.0504 45.875L35.5455 49.625M29 46.712L30.0245 46.4375L29.75 45.413M34.8457 50.087L34.5712 49.0625L35.5957 48.788M35.5455 45.875L29.0503 49.625M34.8458 45.413L34.5713 46.4375L35.5958 46.712M29.0001 48.788L30.0247 49.0625L29.7501 50.087" stroke="#73CDFF" stroke-linecap="round" stroke-linejoin="round"/>
<path d="M32.2869 57V64.5M31.4536 57.4167L32.2869 58.25L33.1203 57.4167M31.4536 64.0833L32.2869 63.25L33.1203 64.0833M29.0504 58.875L35.5455 62.625M29 59.712L30.0245 59.4375L29.75 58.413M34.8457 63.087L34.5712 62.0625L35.5957 61.788M35.5455 58.875L29.0503 62.625M34.8458 58.413L34.5713 59.4375L35.5958 59.712M29.0001 61.788L30.0247 62.0625L29.7501 63.087" stroke="#73CDFF" stroke-linecap="round" stroke-linejoin="round"/>
<path d="M49.2869 44V51.5M48.4536 44.4167L49.2869 45.25L50.1203 44.4167M48.4536 51.0833L49.2869 50.25L50.1203 51.0833M46.0504 45.875L52.5455 49.625M46 46.712L47.0245 46.4375L46.75 45.413M51.8457 50.087L51.5712 49.0625L52.5957 48.788M52.5455 45.875L46.0503 49.625M51.8458 45.413L51.5713 46.4375L52.5958 46.712M46.0001 48.788L47.0247 49.0625L46.7501 50.087" stroke="#73CDFF" stroke-linecap="round" stroke-linejoin="round"/>
<path d="M49.2869 57V64.5M48.4536 57.4167L49.2869 58.25L50.1203 57.4167M48.4536 64.0833L49.2869 63.25L50.1203 64.0833M46.0504 58.875L52.5455 62.625M46 59.712L47.0245 59.4375L46.75 58.413M51.8457 63.087L51.5712 62.0625L52.5957 61.788M52.5455 58.875L46.0503 62.625M51.8458 58.413L51.5713 59.4375L52.5958 59.712M46.0001 61.788L47.0247 62.0625L46.7501 63.087" stroke="#73CDFF" stroke-linecap="round" stroke-linejoin="round"/>
</g>
<defs>
<clipPath id="clip0_6_87">
<rect width="64" height="64" fill="white"/>
</clipPath>
</defs>
</svg>
