<svg width="64" height="64" viewBox="0 0 64 64" fill="none" xmlns="http://www.w3.org/2000/svg">
<g clip-path="url(#clip0_6_49)">
<path d="M32 14.7656C22.4805 14.7656 14.7656 22.4805 14.7656 32C14.7656 41.5195 22.4805 49.2344 32 49.2344C41.5195 49.2344 49.2344 41.5195 49.2344 32C49.2344 22.4805 41.5195 14.7656 32 14.7656Z" fill="#FFC228"/>
<path d="M34.5078 0H29.4883V9.66212H34.5078V0Z" fill="#FFC228"/>
<path d="M34.5078 54.3379H29.4883V64H34.5078V54.3379Z" fill="#FFC228"/>
<path d="M17.9785 14.4295L11.1465 7.59747L7.59779 11.1462L14.4298 17.9782L17.9785 14.4295Z" fill="#FFC228"/>
<path d="M46.0195 49.5684L52.8535 56.4024L56.4024 52.8517L49.5704 46.0195L46.0195 49.5684Z" fill="#FFC228"/>
<path d="M9.66012 29.4883H0V34.5078H9.66012V29.4883Z" fill="#FFC228"/>
<path d="M54.336 29.4903V34.5098L64 34.5079V29.4883L54.336 29.4903Z" fill="#FFC228"/>
<path d="M7.59763 52.8517L11.1445 56.4024L17.9766 49.5684L14.4298 46.0195L7.59763 52.8517Z" fill="#FFC228"/>
<path d="M56.4024 11.1445L52.8516 7.5976L46.0195 14.4297L49.5704 17.9805L56.4024 11.1445Z" fill="#FFC228"/>
</g>
<defs>
<clipPath id="clip0_6_49">
<rect width="64" height="64" fill="white"/>
</clipPath>
</defs>
</svg>
